<svg width="3750" height="1975" viewBox="0 0 3750 1975" fill="none" xmlns="http://www.w3.org/2000/svg">
<rect width="3750" height="1975" fill="white"/>
<g filter="url(#filter0_i_3_420)">
<path d="M2859.98 1182.25C2859.98 1155.88 2865.65 1133.36 2877 1114.69H2881.95C2881.58 1117.61 2881.4 1120.54 2881.4 1123.47C2881.4 1148.74 2890.37 1170.89 2908.31 1189.94C2926.62 1208.61 2951.52 1217.95 2983.01 1217.95C3007.55 1217.95 3026.59 1212.09 3040.14 1200.37C3054.05 1188.65 3061.01 1173.82 3061.01 1155.88C3061.01 1134.28 3046.36 1115.42 3017.07 1099.31L2921.49 1036.14C2902.45 1025.15 2888.72 1011.97 2880.3 996.59C2872.24 980.844 2868.21 964.915 2868.21 948.803C2868.21 914.382 2879.02 887.833 2900.62 869.158C2922.59 850.482 2950.61 841.145 2984.66 841.145C3004.8 841.145 3029.7 842.975 3059.36 846.637H3093.97L3086.83 927.381H3081.33C3081.33 908.34 3074.19 893.143 3059.91 881.791C3046 870.073 3027.32 864.214 3003.89 864.214C2975.32 864.214 2954.63 873.003 2941.82 890.58C2935.23 899.002 2931.93 908.523 2931.93 919.142C2931.93 936.719 2944.75 953.014 2970.38 968.028L3075.29 1036.14C3108.25 1055.18 3124.73 1083.19 3124.73 1120.18C3124.73 1159.36 3111.36 1189.39 3084.63 1210.26C3058.27 1230.77 3023.11 1241.02 2979.17 1241.02C2954.27 1241.02 2931.2 1238.09 2909.96 1232.23C2889.09 1226.01 2873.71 1217.77 2863.82 1207.51C2861.26 1200.56 2859.98 1192.13 2859.98 1182.25Z" fill="#313842"/>
<path d="M2655.49 1240.47C2584.82 1240.47 2529.34 1222.71 2489.06 1187.19C2448.78 1151.67 2428.64 1102.97 2428.64 1041.08C2428.64 979.196 2448.6 930.494 2488.51 894.974C2528.43 859.088 2583.17 841.145 2652.75 841.145C2705.84 841.145 2751.43 851.032 2789.52 870.806L2790.62 965.281H2786.22C2767.55 897.903 2724.88 864.214 2658.24 864.214C2615.03 864.214 2580.79 879.96 2555.52 911.452C2530.62 942.578 2518.17 985.239 2518.17 1039.43C2518.17 1093.63 2530.07 1136.66 2553.88 1168.51C2578.04 1200.37 2610.63 1216.85 2651.65 1217.95C2694.13 1217.95 2726.53 1207.33 2748.87 1186.09C2771.57 1164.12 2787.32 1126.4 2796.11 1072.94H2800.5L2805.99 1167.42C2776.33 1216.48 2726.17 1240.84 2655.49 1240.47Z" fill="#313842"/>
<path d="M2234.59 1227.84C2244.11 1227.84 2252.17 1224.54 2258.76 1217.95C2265.72 1210.99 2269.38 1202.75 2269.75 1193.23V888.382C2269.38 878.861 2265.72 870.805 2258.76 864.214C2252.17 857.622 2244.11 854.327 2234.59 854.327H2227.45V848.834H2394.43L2393.88 854.327H2387.29C2377.77 854.327 2369.53 857.622 2362.57 864.214C2355.62 870.805 2352.14 878.861 2352.14 888.382V1193.23C2352.14 1202.75 2355.62 1210.99 2362.57 1217.95C2369.53 1224.54 2377.77 1227.84 2387.29 1227.84H2393.88L2394.43 1233.33H2227.45V1227.84H2234.59Z" fill="#313842"/>
<path d="M1726.78 846.638H1721.84C1712.69 846.638 1703.35 849.384 1693.83 854.877C1684.67 860.37 1678.08 868.243 1674.05 878.496L1581.77 1174.56C1575.55 1194.7 1572.44 1213.37 1572.44 1230.58C1572.44 1232.41 1572.44 1234.06 1572.44 1235.53H1566.94L1447.2 970.225L1360.42 1174.56C1351.99 1195.8 1347.6 1216.12 1347.23 1235.53H1341.74L1210.46 878.496C1205.7 867.876 1198.93 860.003 1190.14 854.877C1181.35 849.384 1172.38 846.638 1163.22 846.638H1158.83V841.145H1326.36V846.638H1321.42C1313.73 846.638 1307.87 849.201 1303.84 854.328C1300.18 859.088 1298.35 863.665 1298.35 868.06C1298.35 872.454 1299.08 876.665 1300.54 880.693L1368.11 1071.84L1467.52 832.356L1472.47 832.906L1581.77 1074.04L1636.7 880.693C1637.8 876.665 1638.35 872.454 1638.35 868.06C1638.35 863.665 1636.52 859.088 1632.86 854.328C1629.56 849.201 1623.89 846.638 1615.83 846.638H1610.89V841.145H1726.78V846.638Z" fill="#313842"/>
<path d="M1241.71 1220.15H1246.65V1225.64H1071.43V1220.15H1076.37C1084.43 1220.15 1090.29 1217.77 1093.95 1213.01C1097.98 1207.88 1099.99 1203.12 1099.99 1198.72C1099.99 1194.33 1099.08 1189.94 1097.25 1185.54L1070.33 1117.98H941.801L913.238 1185.54C911.407 1190.3 910.492 1194.88 910.492 1199.27C910.492 1203.3 912.323 1207.88 915.985 1213.01C920.013 1217.77 926.238 1220.15 934.66 1220.15H939.054V1225.64H821.509V1220.15H826.452C834.875 1220.15 843.297 1217.58 851.719 1212.46C860.141 1207.33 867.099 1199.64 872.592 1189.39L999.475 902.115C1016.69 865.862 1025.84 841.877 1026.94 830.159H1031.88L1195.02 1188.29C1200.51 1198.91 1207.47 1206.96 1215.89 1212.46C1224.31 1217.58 1232.92 1220.15 1241.71 1220.15ZM951.138 1094.91H1060.99L1007.71 959.789L951.138 1094.91Z" fill="#313842"/>
<path d="M1071.01 1301.99C1109.1 1301.99 1139.86 1294.48 1163.29 1279.47L1167.14 1283.86C1135.65 1327.44 1096.46 1351.61 1049.59 1356.37C1039.71 1357.47 1031.1 1358.02 1023.78 1358.02C1016.82 1358.02 1008.58 1357.65 999.059 1356.92C989.904 1356.55 976.904 1354.17 960.06 1349.78C943.215 1345.38 928.385 1340.8 915.568 1336.04C902.752 1331.65 887.921 1325.61 871.077 1317.92C854.232 1310.59 840.317 1304 829.332 1298.14C818.346 1292.65 805.163 1285.88 789.784 1277.82C774.77 1270.13 761.587 1263.54 750.235 1258.05C738.884 1252.55 727.898 1247.79 717.279 1243.77C687.252 1231.68 656.492 1225.64 625 1225.64V1220.15H632.141C641.661 1220.15 649.718 1216.85 656.309 1210.26C663.266 1203.67 666.928 1195.43 667.294 1185.54V881.242C666.928 871.355 663.266 863.116 656.309 856.524C649.718 849.933 641.661 846.637 632.141 846.637H625V841.145H791.981L791.431 846.637H785.939C772.024 846.637 761.587 852.313 754.63 863.665C751.334 868.792 749.686 874.651 749.686 881.242V1199.82C749.686 1211.91 752.066 1220.33 756.827 1225.09C761.587 1229.48 766.897 1232.6 772.756 1234.43C910.442 1279.47 1009.86 1301.99 1071.01 1301.99Z" fill="#313842"/>
</g>
<g filter="url(#filter1_i_3_420)">
<path d="M1788.69 820.685C1788.69 820.685 1790.07 814.459 1789.79 810.449C1789.46 805.649 1786.39 798.593 1786.39 798.593L1778.45 789.625L1776.71 788.206C1776.71 788.206 1778.7 786.688 1779.18 785.279C1779.47 784.432 1779.43 783.004 1779.43 783.004C1779.43 783.004 1778.72 777.887 1777.69 776.629C1776.65 775.371 1775.7 775.007 1775.7 775.007C1775.7 775.007 1771.08 774.28 1768.39 775.218C1766.51 775.871 1764.05 777.862 1764.05 777.862L1761.81 776.037C1761.81 776.037 1758.51 774.984 1756.94 775.351C1755.37 775.718 1751.69 780.555 1751.69 780.555C1751.69 780.555 1749.61 778.953 1748.05 778.407C1746.83 777.979 1746.75 777.464 1744.79 777.801C1742.82 778.138 1738.67 783.534 1738.67 783.534L1734.79 781.182C1734.79 781.182 1732.68 780.697 1731.65 781.917C1730.61 783.136 1730.12 785.208 1730.37 787.888C1730.62 790.569 1731.87 794.06 1731.87 794.06C1731.87 794.06 1733.44 807.178 1736.35 815.053C1737.28 817.553 1737.75 818.986 1739 821.346C1742.54 828.013 1752.04 835.71 1752.04 835.71L1753.29 841.679L1755.53 853.414L1788.47 850.212L1785.82 841.442L1785.23 837.665L1785.73 833.116L1788.69 820.685Z" fill="#92979D"/>
</g>
<g filter="url(#filter2_i_3_420)">
<path d="M2153.22 825.747C2153.22 825.747 2150.68 819.156 2150.33 814.715C2149.9 809.4 2152.11 801.155 2152.11 801.155L2159.35 790.001L2161.02 788.155C2161.02 788.155 2158.58 786.825 2157.82 785.362C2157.37 784.482 2157.18 782.91 2157.18 782.91C2157.18 782.91 2157.12 777.185 2158.04 775.634C2158.97 774.083 2159.95 773.524 2159.95 773.524C2159.95 773.524 2164.9 771.956 2168.01 772.533C2170.18 772.936 2173.2 774.707 2173.2 774.707L2175.35 772.333C2175.35 772.333 2178.8 770.627 2180.58 770.767C2182.36 770.907 2187.18 775.594 2187.18 775.594C2187.18 775.594 2189.2 773.491 2190.82 772.632C2192.09 771.959 2192.09 771.381 2194.3 771.422C2196.51 771.463 2201.94 776.684 2201.94 776.684L2205.82 773.457C2205.82 773.457 2208.05 772.574 2209.38 773.738C2210.71 774.901 2211.59 777.089 2211.76 780.068C2211.92 783.047 2211.13 787.081 2211.13 787.081C2211.13 787.081 2211.55 801.72 2209.66 810.834C2209.06 813.729 2208.77 815.379 2207.79 818.173C2205.01 826.068 2195.86 836.09 2195.86 836.09L2195.47 842.839L2194.94 856.073L2158.31 858.066L2159.78 848.013L2159.79 843.777L2158.51 838.874L2153.22 825.747Z" fill="#92979D"/>
</g>
<g filter="url(#filter3_i_3_420)">
<path d="M1780.63 961.224C1770.78 928.45 1756.59 880.822 1756.59 880.822L1747.94 842.97C1747.94 842.97 1768.61 842.14 1779.67 840.086C1790.28 838.116 1799.86 837.954 1799.86 837.954C1799.86 837.954 1799.55 864.703 1819.46 904.514C1826.09 917.768 1834.86 934.122 1840.75 952.438C1847.1 972.237 1857.7 1001.62 1869.9 1018.58C1880.2 1032.91 1883.26 1049.07 1891.08 1064.55C1898.81 1079.85 1907.53 1093.21 1917.82 1090.69C1928.1 1088.17 1932.47 1094.28 1934.67 1080.1C1936.3 1069.59 1936.66 1060.43 1932.99 1045.92C1929.32 1031.42 1930.22 1033.06 1926.35 1028.39C1918.66 1019.11 1915.98 1015.09 1913.51 1003.25C1912 996.018 1911.59 991.832 1908.89 984.927C1905.51 976.273 1902.58 958.37 1905.51 955.528C1908.44 952.686 1908.45 957.127 1910.72 946.715C1912.99 936.303 1912.01 925.684 1916.51 913.468C1920.71 902.058 1924.34 896.634 1933.65 889.933C1940.4 885.08 1942.95 882.512 1952.96 880.822C1962.97 879.132 1990 879.06 2003.22 883.583C2016.44 888.107 2017.86 889.777 2025.23 896.962C2034.66 906.163 2038.17 913.996 2042.49 927.053C2048.37 944.851 2043.94 956.5 2044.87 975.368L2045.48 987.704C2045.48 987.704 2049.23 988.556 2052.42 996.648C2055.6 1004.74 2051.83 1013.64 2047.2 1022.66C2044.55 1027.82 2043.44 1032.11 2038.5 1034.4C2034.83 1036.1 2028.31 1034.89 2028.31 1034.89C2028.31 1034.89 2023.56 1044 2022.7 1047.52C2020 1058.58 2020.78 1069.16 2021.11 1075.99C2021.81 1090.04 2026.64 1092.36 2028.93 1093.23C2030.72 1093.91 2033.96 1093.33 2038.15 1093.37C2038.69 1092.17 2039.23 1091.25 2039.77 1090.76C2043.32 1087.5 2064.54 1074.68 2070.01 1064.55C2084.77 1037.26 2088.22 1025.7 2099.77 998.473C2110.47 973.234 2117.63 931.823 2125.02 904.669C2131.77 879.88 2139.96 870.237 2142.94 857.995C2145.91 845.754 2146.76 837.954 2146.76 837.954C2146.76 837.954 2159.33 841.269 2173.43 840.966C2187.52 840.664 2200.1 843.979 2200.1 843.979C2200.1 843.979 2186.35 894.336 2178.65 939.181C2170.54 986.468 2153.28 1020.61 2146.76 1064.55C2141.95 1096.94 2131.09 1149.01 2125.02 1176.7C2118.95 1204.4 2132.88 1185.53 2134.31 1214.48C2135.74 1243.43 2125.97 1245.33 2125.02 1302.53L1834.42 1302.53C1831.89 1251.14 1834.42 1250.92 1834.42 1250.92L1854.29 1214.48C1854.29 1214.48 1854.97 1190.37 1854.29 1176.7C1853.62 1163.03 1800.82 1028.39 1780.63 961.224Z" fill="#313842"/>
</g>
<g filter="url(#filter4_i_3_420)">
<rect x="1795" y="1215" width="381" height="115" fill="#7C6C5C"/>
</g>
<g filter="url(#filter5_i_3_420)">
<rect x="1772.05" y="1192.43" width="424.945" height="22.6717" fill="#A29388"/>
</g>
<g filter="url(#filter6_i_3_420)">
<path d="M1908 1087.84L1933 1086.5L1984.65 1119.6L1965.79 1142.24L1908 1087.84Z" fill="#FCF7F7"/>
</g>
<g filter="url(#filter7_i_3_420)">
<path d="M2057 1079L2026 1085L1984.65 1119.6L2003.51 1142.24L2057 1079Z" fill="#FCF7F7"/>
</g>
<g filter="url(#filter8_i_3_420)">
<rect width="23.0623" height="104.811" rx="5" transform="matrix(0.650897 0.752136 -0.771362 0.644799 2221.09 763.805)" fill="#ACB9D0"/>
<rect width="11.3898" height="31.3928" transform="matrix(0.67426 0.731577 -0.750798 0.668295 2241.98 751.342)" fill="#ACB9D0"/>
<ellipse cx="66.0695" cy="65.2738" rx="66.0695" ry="65.2738" transform="matrix(0.935221 0.354064 -0.365957 0.930632 2256.1 630.095)" fill="#ACB9D0"/>
</g>
<g filter="url(#filter9_i_3_420)">
<ellipse cx="2294.51" cy="715.001" rx="49.9935" ry="49.1219" transform="rotate(-2.12709 2294.51 715.001)" fill="#E1E5ED"/>
</g>
<g filter="url(#filter10_i_3_420)">
<path d="M2289.3 736.508C2292.19 743.119 2293.64 750.049 2293.64 763.008H2294.82C2294.82 750.049 2299.1 743.119 2301.73 736.508C2304.62 729.632 2309.48 724.871 2316.32 722.227C2323.16 719.318 2330.32 715.14 2343.73 715.404V714.611C2330.32 714.611 2323.16 710.433 2316.32 707.789C2309.48 704.88 2304.62 700.119 2301.73 693.508C2299.1 686.896 2294.82 679.966 2294.82 667.008H2293.64C2293.64 679.966 2292.19 686.896 2289.3 693.508C2286.67 700.119 2281.93 704.88 2275.1 707.789C2268.26 710.433 2258.14 714.611 2244.73 714.611V715.404C2258.14 715.14 2268.26 719.318 2275.1 722.227C2281.93 724.871 2286.67 729.632 2289.3 736.508Z" fill="#FFFFF0"/>
</g>
<defs>
<filter id="filter0_i_3_420" x="625" y="830.159" width="2509.73" height="537.856" filterUnits="userSpaceOnUse" color-interpolation-filters="sRGB">
<feFlood flood-opacity="0" result="BackgroundImageFix"/>
<feBlend mode="normal" in="SourceGraphic" in2="BackgroundImageFix" result="shape"/>
<feColorMatrix in="SourceAlpha" type="matrix" values="0 0 0 0 0 0 0 0 0 0 0 0 0 0 0 0 0 0 127 0" result="hardAlpha"/>
<feOffset dx="10" dy="10"/>
<feGaussianBlur stdDeviation="10"/>
<feComposite in2="hardAlpha" operator="arithmetic" k2="-1" k3="1"/>
<feColorMatrix type="matrix" values="0 0 0 0 0 0 0 0 0 0 0 0 0 0 0 0 0 0 0.25 0"/>
<feBlend mode="normal" in2="shape" result="effect1_innerShadow_3_420"/>
</filter>
<filter id="filter1_i_3_420" x="1730.31" y="774.738" width="69.5244" height="88.6758" filterUnits="userSpaceOnUse" color-interpolation-filters="sRGB">
<feFlood flood-opacity="0" result="BackgroundImageFix"/>
<feBlend mode="normal" in="SourceGraphic" in2="BackgroundImageFix" result="shape"/>
<feColorMatrix in="SourceAlpha" type="matrix" values="0 0 0 0 0 0 0 0 0 0 0 0 0 0 0 0 0 0 127 0" result="hardAlpha"/>
<feOffset dx="10" dy="10"/>
<feGaussianBlur stdDeviation="10"/>
<feComposite in2="hardAlpha" operator="arithmetic" k2="-1" k3="1"/>
<feColorMatrix type="matrix" values="0 0 0 0 0 0 0 0 0 0 0 0 0 0 0 0 0 0 0.1 0"/>
<feBlend mode="normal" in2="shape" result="effect1_innerShadow_3_420"/>
</filter>
<filter id="filter2_i_3_420" x="2150.27" y="770.759" width="71.5059" height="97.3076" filterUnits="userSpaceOnUse" color-interpolation-filters="sRGB">
<feFlood flood-opacity="0" result="BackgroundImageFix"/>
<feBlend mode="normal" in="SourceGraphic" in2="BackgroundImageFix" result="shape"/>
<feColorMatrix in="SourceAlpha" type="matrix" values="0 0 0 0 0 0 0 0 0 0 0 0 0 0 0 0 0 0 127 0" result="hardAlpha"/>
<feOffset dx="10" dy="10"/>
<feGaussianBlur stdDeviation="10"/>
<feComposite in2="hardAlpha" operator="arithmetic" k2="-1" k3="1"/>
<feColorMatrix type="matrix" values="0 0 0 0 0 0 0 0 0 0 0 0 0 0 0 0 0 0 0.1 0"/>
<feBlend mode="normal" in2="shape" result="effect1_innerShadow_3_420"/>
</filter>
<filter id="filter3_i_3_420" x="1747.94" y="837.954" width="462.155" height="474.571" filterUnits="userSpaceOnUse" color-interpolation-filters="sRGB">
<feFlood flood-opacity="0" result="BackgroundImageFix"/>
<feBlend mode="normal" in="SourceGraphic" in2="BackgroundImageFix" result="shape"/>
<feColorMatrix in="SourceAlpha" type="matrix" values="0 0 0 0 0 0 0 0 0 0 0 0 0 0 0 0 0 0 127 0" result="hardAlpha"/>
<feOffset dx="10" dy="10"/>
<feGaussianBlur stdDeviation="10"/>
<feComposite in2="hardAlpha" operator="arithmetic" k2="-1" k3="1"/>
<feColorMatrix type="matrix" values="0 0 0 0 0 0 0 0 0 0 0 0 0 0 0 0 0 0 0.5 0"/>
<feBlend mode="normal" in2="shape" result="effect1_innerShadow_3_420"/>
</filter>
<filter id="filter4_i_3_420" x="1795" y="1215" width="391" height="125" filterUnits="userSpaceOnUse" color-interpolation-filters="sRGB">
<feFlood flood-opacity="0" result="BackgroundImageFix"/>
<feBlend mode="normal" in="SourceGraphic" in2="BackgroundImageFix" result="shape"/>
<feColorMatrix in="SourceAlpha" type="matrix" values="0 0 0 0 0 0 0 0 0 0 0 0 0 0 0 0 0 0 127 0" result="hardAlpha"/>
<feOffset dx="10" dy="10"/>
<feGaussianBlur stdDeviation="10"/>
<feComposite in2="hardAlpha" operator="arithmetic" k2="-1" k3="1"/>
<feColorMatrix type="matrix" values="0 0 0 0 0 0 0 0 0 0 0 0 0 0 0 0 0 0 0.25 0"/>
<feBlend mode="normal" in2="shape" result="effect1_innerShadow_3_420"/>
</filter>
<filter id="filter5_i_3_420" x="1772.05" y="1192.43" width="427.944" height="25.6719" filterUnits="userSpaceOnUse" color-interpolation-filters="sRGB">
<feFlood flood-opacity="0" result="BackgroundImageFix"/>
<feBlend mode="normal" in="SourceGraphic" in2="BackgroundImageFix" result="shape"/>
<feColorMatrix in="SourceAlpha" type="matrix" values="0 0 0 0 0 0 0 0 0 0 0 0 0 0 0 0 0 0 127 0" result="hardAlpha"/>
<feOffset dx="3" dy="3"/>
<feGaussianBlur stdDeviation="5"/>
<feComposite in2="hardAlpha" operator="arithmetic" k2="-1" k3="1"/>
<feColorMatrix type="matrix" values="0 0 0 0 0 0 0 0 0 0 0 0 0 0 0 0 0 0 0.25 0"/>
<feBlend mode="normal" in2="shape" result="effect1_innerShadow_3_420"/>
</filter>
<filter id="filter6_i_3_420" x="1908" y="1086.5" width="80.6504" height="59.7402" filterUnits="userSpaceOnUse" color-interpolation-filters="sRGB">
<feFlood flood-opacity="0" result="BackgroundImageFix"/>
<feBlend mode="normal" in="SourceGraphic" in2="BackgroundImageFix" result="shape"/>
<feColorMatrix in="SourceAlpha" type="matrix" values="0 0 0 0 0 0 0 0 0 0 0 0 0 0 0 0 0 0 127 0" result="hardAlpha"/>
<feOffset dx="4" dy="4"/>
<feGaussianBlur stdDeviation="3.5"/>
<feComposite in2="hardAlpha" operator="arithmetic" k2="-1" k3="1"/>
<feColorMatrix type="matrix" values="0 0 0 0 0 0 0 0 0 0 0 0 0 0 0 0 0 0 0.25 0"/>
<feBlend mode="normal" in2="shape" result="effect1_innerShadow_3_420"/>
</filter>
<filter id="filter7_i_3_420" x="1984.65" y="1079" width="76.3486" height="67.2402" filterUnits="userSpaceOnUse" color-interpolation-filters="sRGB">
<feFlood flood-opacity="0" result="BackgroundImageFix"/>
<feBlend mode="normal" in="SourceGraphic" in2="BackgroundImageFix" result="shape"/>
<feColorMatrix in="SourceAlpha" type="matrix" values="0 0 0 0 0 0 0 0 0 0 0 0 0 0 0 0 0 0 127 0" result="hardAlpha"/>
<feOffset dx="4" dy="4"/>
<feGaussianBlur stdDeviation="3.5"/>
<feComposite in2="hardAlpha" operator="arithmetic" k2="-1" k3="1"/>
<feColorMatrix type="matrix" values="0 0 0 0 0 0 0 0 0 0 0 0 0 0 0 0 0 0 0.25 0"/>
<feBlend mode="normal" in2="shape" result="effect1_innerShadow_3_420"/>
</filter>
<filter id="filter8_i_3_420" x="2142.31" y="649.121" width="221.959" height="201.581" filterUnits="userSpaceOnUse" color-interpolation-filters="sRGB">
<feFlood flood-opacity="0" result="BackgroundImageFix"/>
<feBlend mode="normal" in="SourceGraphic" in2="BackgroundImageFix" result="shape"/>
<feColorMatrix in="SourceAlpha" type="matrix" values="0 0 0 0 0 0 0 0 0 0 0 0 0 0 0 0 0 0 127 0" result="hardAlpha"/>
<feOffset dx="4" dy="4"/>
<feGaussianBlur stdDeviation="3.5"/>
<feComposite in2="hardAlpha" operator="arithmetic" k2="-1" k3="1"/>
<feColorMatrix type="matrix" values="0 0 0 0 0.323972 0 0 0 0 0.344702 0 0 0 0 0.373404 0 0 0 0.2 0"/>
<feBlend mode="normal" in2="shape" result="effect1_innerShadow_3_420"/>
</filter>
<filter id="filter9_i_3_420" x="2244.51" y="665.877" width="103.986" height="102.248" filterUnits="userSpaceOnUse" color-interpolation-filters="sRGB">
<feFlood flood-opacity="0" result="BackgroundImageFix"/>
<feBlend mode="normal" in="SourceGraphic" in2="BackgroundImageFix" result="shape"/>
<feColorMatrix in="SourceAlpha" type="matrix" values="0 0 0 0 0 0 0 0 0 0 0 0 0 0 0 0 0 0 127 0" result="hardAlpha"/>
<feOffset dx="4" dy="4"/>
<feGaussianBlur stdDeviation="5"/>
<feComposite in2="hardAlpha" operator="arithmetic" k2="-1" k3="1"/>
<feColorMatrix type="matrix" values="0 0 0 0 0 0 0 0 0 0 0 0 0 0 0 0 0 0 0.25 0"/>
<feBlend mode="normal" in2="shape" result="effect1_innerShadow_3_420"/>
</filter>
<filter id="filter10_i_3_420" x="2244.73" y="667.008" width="103" height="100" filterUnits="userSpaceOnUse" color-interpolation-filters="sRGB">
<feFlood flood-opacity="0" result="BackgroundImageFix"/>
<feBlend mode="normal" in="SourceGraphic" in2="BackgroundImageFix" result="shape"/>
<feColorMatrix in="SourceAlpha" type="matrix" values="0 0 0 0 0 0 0 0 0 0 0 0 0 0 0 0 0 0 127 0" result="hardAlpha"/>
<feOffset dx="4" dy="4"/>
<feGaussianBlur stdDeviation="2"/>
<feComposite in2="hardAlpha" operator="arithmetic" k2="-1" k3="1"/>
<feColorMatrix type="matrix" values="0 0 0 0 0.609156 0 0 0 0 0.609488 0 0 0 0 0.589617 0 0 0 0.25 0"/>
<feBlend mode="normal" in2="shape" result="effect1_innerShadow_3_420"/>
</filter>
</defs>
</svg>
