<svg width="1079" height="1076" viewBox="0 0 1079 1076" fill="none" xmlns="http://www.w3.org/2000/svg">
<rect width="1079" height="1076" fill="white"/>
<g filter="url(#filter0_i_3_468)">
<path d="M314.051 308.685C314.051 308.685 315.431 302.459 315.156 298.449C314.826 293.649 311.753 286.593 311.753 286.593L303.807 277.625L302.07 276.206C302.07 276.206 304.065 274.688 304.547 273.279C304.837 272.432 304.792 271.004 304.792 271.004C304.792 271.004 304.084 265.887 303.049 264.629C302.015 263.371 301.064 263.007 301.064 263.007C301.064 263.007 296.442 262.28 293.747 263.218C291.868 263.871 289.41 265.862 289.41 265.862L287.176 264.037C287.176 264.037 283.868 262.984 282.298 263.351C280.727 263.718 277.054 268.555 277.054 268.555C277.054 268.555 274.976 266.953 273.414 266.407C272.191 265.979 272.113 265.464 270.148 265.801C268.183 266.138 264.036 271.534 264.036 271.534L260.148 269.182C260.148 269.182 258.04 268.697 257.008 269.917C255.976 271.136 255.482 273.208 255.733 275.888C255.984 278.569 257.228 282.06 257.228 282.06C257.228 282.06 258.807 295.178 261.714 303.053C262.638 305.553 263.117 306.986 264.367 309.346C267.897 316.013 277.403 323.71 277.403 323.71L278.649 329.679L280.894 341.414L313.835 338.212L311.18 329.442L310.597 325.665L311.088 321.116L314.051 308.685Z" fill="#EAE7E7"/>
<path d="M678.582 313.747C678.582 313.747 676.047 307.156 675.69 302.715C675.263 297.4 677.473 289.155 677.473 289.155L684.71 278.001L686.381 276.155C686.381 276.155 683.946 274.825 683.186 273.362C682.729 272.482 682.543 270.91 682.543 270.91C682.543 270.91 682.479 265.185 683.407 263.634C684.335 262.083 685.317 261.524 685.317 261.524C685.317 261.524 690.264 259.956 693.371 260.533C695.538 260.936 698.559 262.707 698.559 262.707L700.708 260.333C700.708 260.333 704.161 258.627 705.943 258.767C707.724 258.907 712.545 263.594 712.545 263.594C712.545 263.594 714.559 261.491 716.182 260.632C717.452 259.959 717.453 259.381 719.662 259.422C721.871 259.463 727.302 264.684 727.302 264.684L731.178 261.457C731.178 261.457 733.409 260.574 734.741 261.738C736.072 262.901 736.954 265.089 737.119 268.068C737.284 271.047 736.494 275.081 736.494 275.081C736.494 275.081 736.917 289.72 735.023 298.834C734.421 301.729 734.131 303.379 733.149 306.173C730.374 314.068 721.219 324.09 721.219 324.09L720.833 330.839L720.299 344.073L683.668 346.066L685.138 336.013L685.156 331.777L683.871 326.874L678.582 313.747Z" fill="#EAE7E7"/>
<path d="M305.991 449.224C296.14 416.45 281.956 368.822 281.956 368.822L273.303 330.97C273.303 330.97 293.971 330.14 305.03 328.086C315.638 326.116 325.22 325.954 325.22 325.954C325.22 325.954 324.915 352.703 344.825 392.514C351.454 405.768 360.227 422.122 366.108 440.438C372.466 460.237 383.058 489.616 395.26 506.584C405.561 520.908 408.623 537.067 416.447 552.555C424.172 567.847 432.893 581.209 443.178 578.688C453.462 576.166 457.837 582.28 460.036 568.099C461.666 557.587 462.018 548.43 458.352 533.923C454.687 519.417 455.58 521.063 451.71 516.393C444.018 507.113 441.34 503.087 438.87 491.255C437.36 484.018 436.951 479.832 434.254 472.927C430.874 464.273 427.942 446.37 430.874 443.528C433.806 440.686 433.813 445.127 436.085 434.715C438.356 424.303 437.37 413.684 441.872 401.468C446.077 390.058 449.705 384.634 459.015 377.933C465.759 373.08 468.313 370.512 478.321 368.822C488.329 367.132 515.363 367.06 528.581 371.583C541.799 376.107 543.222 377.777 550.59 384.962C560.025 394.163 563.536 401.996 567.852 415.053C573.735 432.851 569.303 444.5 570.232 463.368L570.84 475.704C570.84 475.704 574.595 476.556 577.778 484.648C580.962 492.739 577.193 501.638 572.562 510.655C569.91 515.819 568.807 520.114 563.859 522.404C560.197 524.098 553.672 522.888 553.672 522.888C553.672 522.888 548.92 532.002 548.061 535.52C545.359 546.578 546.139 557.163 546.476 563.987C547.168 578.038 552.003 580.363 554.296 581.232C556.087 581.911 559.323 581.328 563.517 581.37C564.052 580.167 564.595 579.25 565.129 578.76C568.682 575.499 589.9 562.683 595.377 552.555C610.133 525.263 613.578 513.699 625.128 486.473C635.835 461.234 642.994 419.823 650.383 392.669C657.129 367.88 665.326 358.237 668.301 345.995C671.275 333.754 672.117 325.954 672.117 325.954C672.117 325.954 684.688 329.269 698.787 328.966C712.887 328.664 725.458 331.979 725.458 331.979C725.458 331.979 711.711 382.336 704.017 427.181C695.903 474.468 678.641 508.605 672.117 552.555C667.31 584.938 656.455 637.01 650.383 664.704C644.312 692.397 658.245 673.533 659.672 702.483C661.098 731.433 651.329 733.335 650.383 790.526L359.78 790.526C357.248 739.14 359.78 738.916 359.78 738.916L379.656 702.483C379.656 702.483 380.329 678.374 379.656 664.704C378.982 651.034 326.181 516.393 305.991 449.224Z" fill="#F8F9FA"/>
<path d="M320.481 680.427H701.201V818.346H320.481V680.427Z" fill="#B39884"/>
<path d="M297.408 680.427H722.353V703.098H297.408V680.427Z" fill="#CDBCB0"/>
<path d="M436.863 575.835H461.723L510.013 607.594L491.154 630.24L436.863 575.835Z" fill="#414952"/>
<path d="M593.09 560.007L550.59 577.007L510.014 607.594L528.873 630.24L593.09 560.007Z" fill="#414952"/>
<path d="M742.594 255.029C744.724 253.248 747.908 253.488 749.706 255.565L758.208 265.39C760.005 267.467 759.736 270.594 757.606 272.375L684.472 333.509C682.342 335.289 679.158 335.049 677.36 332.972L668.858 323.148C667.061 321.071 667.33 317.943 669.461 316.163L742.594 255.029Z" fill="#8EA9CC"/>
<path d="M767.345 239.342L775.024 247.674L751.455 268.654L743.775 260.321L767.345 239.342Z" fill="#8EA9CC"/>
<path d="M881.154 225.626C867.961 259.175 829.602 275.899 795.477 262.979C761.351 250.06 744.382 212.39 757.574 178.841C770.767 145.292 809.126 128.568 843.252 141.488C877.377 154.407 894.346 192.077 881.154 225.626Z" fill="#8EA9CC"/>
<path d="M869.827 201.145C870.834 228.256 849.283 251.064 821.691 252.089C794.1 253.114 770.916 231.967 769.909 204.857C768.902 177.746 790.453 154.938 818.045 153.913C845.637 152.888 868.82 174.035 869.827 201.145Z" fill="#D3D5D8"/>
<path d="M814.66 224.508C817.552 231.119 818.998 238.049 818.998 251.008H820.182C820.182 238.049 824.46 231.119 827.09 224.508C829.982 217.632 834.847 212.871 841.683 210.227C848.52 207.318 855.679 203.14 869.09 203.404V202.611C855.679 202.611 848.52 198.433 841.683 195.789C834.847 192.88 829.982 188.119 827.09 181.508C824.46 174.896 820.182 167.966 820.182 155.008H818.998C818.998 167.966 817.552 174.896 814.66 181.508C812.03 188.119 807.297 192.88 800.46 195.789C793.624 198.433 783.5 202.611 770.09 202.611V203.404C783.5 203.14 793.624 207.318 800.46 210.227C807.297 212.871 812.03 217.632 814.66 224.508Z" fill="#FBF9F3"/>
</g>
<defs>
<filter id="filter0_i_3_468" x="255.668" y="137.121" width="633.96" height="685.225" filterUnits="userSpaceOnUse" color-interpolation-filters="sRGB">
<feFlood flood-opacity="0" result="BackgroundImageFix"/>
<feBlend mode="normal" in="SourceGraphic" in2="BackgroundImageFix" result="shape"/>
<feColorMatrix in="SourceAlpha" type="matrix" values="0 0 0 0 0 0 0 0 0 0 0 0 0 0 0 0 0 0 127 0" result="hardAlpha"/>
<feOffset dx="8" dy="5"/>
<feGaussianBlur stdDeviation="2"/>
<feComposite in2="hardAlpha" operator="arithmetic" k2="-1" k3="1"/>
<feColorMatrix type="matrix" values="0 0 0 0 0 0 0 0 0 0 0 0 0 0 0 0 0 0 0.3 0"/>
<feBlend mode="normal" in2="shape" result="effect1_innerShadow_3_468"/>
</filter>
</defs>
</svg>
