<svg width="1087" height="1076" viewBox="0 0 1087 1076" fill="none" xmlns="http://www.w3.org/2000/svg">
<rect width="1087" height="1076" fill="white"/>
<g filter="url(#filter0_i_3_492)">
<path d="M344.051 312.685C344.051 312.685 345.431 306.459 345.156 302.449C344.826 297.649 341.753 290.593 341.753 290.593L333.807 281.625L332.07 280.206C332.07 280.206 334.065 278.688 334.547 277.279C334.837 276.432 334.792 275.004 334.792 275.004C334.792 275.004 334.084 269.887 333.049 268.629C332.015 267.371 331.064 267.007 331.064 267.007C331.064 267.007 326.442 266.28 323.747 267.218C321.868 267.871 319.41 269.862 319.41 269.862L317.176 268.037C317.176 268.037 313.868 266.984 312.298 267.351C310.727 267.718 307.054 272.555 307.054 272.555C307.054 272.555 304.976 270.953 303.414 270.407C302.191 269.979 302.113 269.464 300.148 269.801C298.183 270.138 294.036 275.534 294.036 275.534L290.148 273.182C290.148 273.182 288.04 272.697 287.008 273.917C285.976 275.136 285.482 277.208 285.733 279.888C285.984 282.569 287.228 286.06 287.228 286.06C287.228 286.06 288.807 299.178 291.714 307.053C292.638 309.553 293.117 310.986 294.367 313.346C297.897 320.013 307.403 327.71 307.403 327.71L308.649 333.679L310.894 345.414L343.835 342.212L341.18 333.442L340.597 329.665L341.088 325.116L344.051 312.685Z" fill="#92979D"/>
</g>
<g filter="url(#filter1_i_3_492)">
<path d="M708.582 317.747C708.582 317.747 706.047 311.156 705.69 306.715C705.263 301.4 707.473 293.155 707.473 293.155L714.71 282.001L716.381 280.155C716.381 280.155 713.946 278.825 713.186 277.362C712.729 276.482 712.543 274.91 712.543 274.91C712.543 274.91 712.479 269.185 713.407 267.634C714.335 266.083 715.317 265.524 715.317 265.524C715.317 265.524 720.264 263.956 723.371 264.533C725.538 264.936 728.559 266.707 728.559 266.707L730.708 264.333C730.708 264.333 734.161 262.627 735.943 262.767C737.724 262.907 742.545 267.594 742.545 267.594C742.545 267.594 744.559 265.491 746.182 264.632C747.452 263.959 747.453 263.381 749.662 263.422C751.871 263.463 757.302 268.684 757.302 268.684L761.178 265.457C761.178 265.457 763.409 264.574 764.741 265.738C766.072 266.901 766.954 269.089 767.119 272.068C767.284 275.047 766.494 279.081 766.494 279.081C766.494 279.081 766.917 293.72 765.023 302.834C764.421 305.729 764.131 307.379 763.149 310.173C760.374 318.068 751.219 328.09 751.219 328.09L750.833 334.839L750.299 348.073L713.668 350.066L715.138 340.013L715.156 335.777L713.871 330.874L708.582 317.747Z" fill="#92979D"/>
</g>
<g filter="url(#filter2_i_3_492)">
<path d="M335.991 453.224C326.14 420.45 311.956 372.822 311.956 372.822L303.303 334.97C303.303 334.97 323.971 334.14 335.03 332.086C345.638 330.116 355.22 329.954 355.22 329.954C355.22 329.954 354.915 356.703 374.825 396.514C381.454 409.768 390.227 426.122 396.108 444.438C402.466 464.237 413.058 493.616 425.26 510.584C435.561 524.908 438.623 541.067 446.447 556.555C454.172 571.847 462.893 585.209 473.178 582.688C483.462 580.166 487.837 586.28 490.036 572.099C491.666 561.587 492.018 552.43 488.352 537.923C484.687 523.417 485.58 525.063 481.71 520.393C474.018 511.113 471.34 507.087 468.87 495.255C467.36 488.018 466.951 483.832 464.254 476.927C460.874 468.273 457.942 450.37 460.874 447.528C463.806 444.686 463.813 449.127 466.085 438.715C468.356 428.303 467.37 417.684 471.872 405.468C476.077 394.058 479.705 388.634 489.015 381.933C495.759 377.08 498.313 374.512 508.321 372.822C518.329 371.132 545.363 371.06 558.581 375.583C571.799 380.107 573.222 381.777 580.59 388.962C590.025 398.163 593.536 405.996 597.852 419.053C603.735 436.851 599.303 448.5 600.232 467.368L600.84 479.704C600.84 479.704 604.595 480.556 607.778 488.648C610.962 496.739 607.194 505.638 602.562 514.655C599.91 519.819 598.807 524.114 593.859 526.404C590.197 528.098 583.672 526.888 583.672 526.888C583.672 526.888 578.92 536.002 578.061 539.52C575.359 550.578 576.139 561.163 576.476 567.987C577.168 582.038 582.003 584.363 584.296 585.232C586.087 585.911 589.323 585.328 593.517 585.37C594.052 584.167 594.595 583.25 595.129 582.76C598.682 579.499 619.9 566.683 625.377 556.555C640.133 529.263 643.578 517.699 655.128 490.473C665.835 465.234 672.994 423.823 680.383 396.669C687.129 371.88 695.326 362.237 698.301 349.995C701.275 337.754 702.117 329.954 702.117 329.954C702.117 329.954 714.688 333.269 728.787 332.966C742.887 332.664 755.458 335.979 755.458 335.979C755.458 335.979 741.711 386.336 734.017 431.181C725.903 478.468 708.641 512.605 702.117 556.555C697.31 588.938 686.455 641.01 680.383 668.704C674.312 696.397 688.245 677.533 689.672 706.483C691.098 735.433 681.329 737.335 680.383 794.526L389.78 794.526C387.248 743.14 389.78 742.916 389.78 742.916L409.656 706.483C409.656 706.483 410.329 682.374 409.656 668.704C408.982 655.034 356.181 520.393 335.991 453.224Z" fill="#313842"/>
</g>
<g filter="url(#filter3_i_3_492)">
<rect x="350.362" y="707" width="381" height="115" fill="#7C6C5C"/>
</g>
<g filter="url(#filter4_i_3_492)">
<rect x="327.408" y="684.427" width="424.945" height="22.6717" fill="#A29388"/>
</g>
<g filter="url(#filter5_i_3_492)">
<path d="M463.362 579.836L488.362 578.5L540.013 611.595L521.154 634.241L463.362 579.836Z" fill="#FCF7F7"/>
</g>
<g filter="url(#filter6_i_3_492)">
<path d="M612.362 571L581.362 577L540.014 611.595L558.873 634.241L612.362 571Z" fill="#FCF7F7"/>
</g>
<g filter="url(#filter7_i_3_492)">
<rect width="23.0623" height="104.811" rx="5" transform="matrix(0.650897 0.752136 -0.771362 0.644799 776.451 255.805)" fill="#ACB9D0"/>
<rect width="11.3898" height="31.3928" transform="matrix(0.67426 0.731577 -0.750798 0.668295 797.345 243.342)" fill="#ACB9D0"/>
<ellipse cx="66.0695" cy="65.2738" rx="66.0695" ry="65.2738" transform="matrix(0.935221 0.354064 -0.365957 0.930632 811.462 122.095)" fill="#ACB9D0"/>
</g>
<g filter="url(#filter8_i_3_492)">
<ellipse cx="849.868" cy="207.001" rx="49.9935" ry="49.1219" transform="rotate(-2.12709 849.868 207.001)" fill="#E1E5ED"/>
</g>
<g filter="url(#filter9_i_3_492)">
<path d="M844.66 228.508C847.552 235.119 848.998 242.049 848.998 255.008H850.182C850.182 242.049 854.46 235.119 857.09 228.508C859.982 221.632 864.847 216.871 871.683 214.227C878.52 211.318 885.679 207.14 899.09 207.404V206.611C885.679 206.611 878.52 202.433 871.683 199.789C864.847 196.88 859.982 192.119 857.09 185.508C854.46 178.896 850.182 171.966 850.182 159.008H848.998C848.998 171.966 847.552 178.896 844.66 185.508C842.03 192.119 837.297 196.88 830.46 199.789C823.624 202.433 813.5 206.611 800.09 206.611V207.404C813.5 207.14 823.624 211.318 830.46 214.227C837.297 216.871 842.03 221.632 844.66 228.508Z" fill="#FFFFF0"/>
</g>
<defs>
<filter id="filter0_i_3_492" x="285.668" y="266.738" width="69.5244" height="88.6758" filterUnits="userSpaceOnUse" color-interpolation-filters="sRGB">
<feFlood flood-opacity="0" result="BackgroundImageFix"/>
<feBlend mode="normal" in="SourceGraphic" in2="BackgroundImageFix" result="shape"/>
<feColorMatrix in="SourceAlpha" type="matrix" values="0 0 0 0 0 0 0 0 0 0 0 0 0 0 0 0 0 0 127 0" result="hardAlpha"/>
<feOffset dx="10" dy="10"/>
<feGaussianBlur stdDeviation="10"/>
<feComposite in2="hardAlpha" operator="arithmetic" k2="-1" k3="1"/>
<feColorMatrix type="matrix" values="0 0 0 0 0 0 0 0 0 0 0 0 0 0 0 0 0 0 0.1 0"/>
<feBlend mode="normal" in2="shape" result="effect1_innerShadow_3_492"/>
</filter>
<filter id="filter1_i_3_492" x="705.636" y="262.759" width="71.5059" height="97.3076" filterUnits="userSpaceOnUse" color-interpolation-filters="sRGB">
<feFlood flood-opacity="0" result="BackgroundImageFix"/>
<feBlend mode="normal" in="SourceGraphic" in2="BackgroundImageFix" result="shape"/>
<feColorMatrix in="SourceAlpha" type="matrix" values="0 0 0 0 0 0 0 0 0 0 0 0 0 0 0 0 0 0 127 0" result="hardAlpha"/>
<feOffset dx="10" dy="10"/>
<feGaussianBlur stdDeviation="10"/>
<feComposite in2="hardAlpha" operator="arithmetic" k2="-1" k3="1"/>
<feColorMatrix type="matrix" values="0 0 0 0 0 0 0 0 0 0 0 0 0 0 0 0 0 0 0.1 0"/>
<feBlend mode="normal" in2="shape" result="effect1_innerShadow_3_492"/>
</filter>
<filter id="filter2_i_3_492" x="303.303" y="329.954" width="462.155" height="474.571" filterUnits="userSpaceOnUse" color-interpolation-filters="sRGB">
<feFlood flood-opacity="0" result="BackgroundImageFix"/>
<feBlend mode="normal" in="SourceGraphic" in2="BackgroundImageFix" result="shape"/>
<feColorMatrix in="SourceAlpha" type="matrix" values="0 0 0 0 0 0 0 0 0 0 0 0 0 0 0 0 0 0 127 0" result="hardAlpha"/>
<feOffset dx="10" dy="10"/>
<feGaussianBlur stdDeviation="10"/>
<feComposite in2="hardAlpha" operator="arithmetic" k2="-1" k3="1"/>
<feColorMatrix type="matrix" values="0 0 0 0 0 0 0 0 0 0 0 0 0 0 0 0 0 0 0.5 0"/>
<feBlend mode="normal" in2="shape" result="effect1_innerShadow_3_492"/>
</filter>
<filter id="filter3_i_3_492" x="350.362" y="707" width="391" height="125" filterUnits="userSpaceOnUse" color-interpolation-filters="sRGB">
<feFlood flood-opacity="0" result="BackgroundImageFix"/>
<feBlend mode="normal" in="SourceGraphic" in2="BackgroundImageFix" result="shape"/>
<feColorMatrix in="SourceAlpha" type="matrix" values="0 0 0 0 0 0 0 0 0 0 0 0 0 0 0 0 0 0 127 0" result="hardAlpha"/>
<feOffset dx="10" dy="10"/>
<feGaussianBlur stdDeviation="10"/>
<feComposite in2="hardAlpha" operator="arithmetic" k2="-1" k3="1"/>
<feColorMatrix type="matrix" values="0 0 0 0 0 0 0 0 0 0 0 0 0 0 0 0 0 0 0.25 0"/>
<feBlend mode="normal" in2="shape" result="effect1_innerShadow_3_492"/>
</filter>
<filter id="filter4_i_3_492" x="327.408" y="684.427" width="427.944" height="25.6719" filterUnits="userSpaceOnUse" color-interpolation-filters="sRGB">
<feFlood flood-opacity="0" result="BackgroundImageFix"/>
<feBlend mode="normal" in="SourceGraphic" in2="BackgroundImageFix" result="shape"/>
<feColorMatrix in="SourceAlpha" type="matrix" values="0 0 0 0 0 0 0 0 0 0 0 0 0 0 0 0 0 0 127 0" result="hardAlpha"/>
<feOffset dx="3" dy="3"/>
<feGaussianBlur stdDeviation="5"/>
<feComposite in2="hardAlpha" operator="arithmetic" k2="-1" k3="1"/>
<feColorMatrix type="matrix" values="0 0 0 0 0 0 0 0 0 0 0 0 0 0 0 0 0 0 0.25 0"/>
<feBlend mode="normal" in2="shape" result="effect1_innerShadow_3_492"/>
</filter>
<filter id="filter5_i_3_492" x="463.362" y="578.5" width="80.6504" height="59.7402" filterUnits="userSpaceOnUse" color-interpolation-filters="sRGB">
<feFlood flood-opacity="0" result="BackgroundImageFix"/>
<feBlend mode="normal" in="SourceGraphic" in2="BackgroundImageFix" result="shape"/>
<feColorMatrix in="SourceAlpha" type="matrix" values="0 0 0 0 0 0 0 0 0 0 0 0 0 0 0 0 0 0 127 0" result="hardAlpha"/>
<feOffset dx="4" dy="4"/>
<feGaussianBlur stdDeviation="3.5"/>
<feComposite in2="hardAlpha" operator="arithmetic" k2="-1" k3="1"/>
<feColorMatrix type="matrix" values="0 0 0 0 0 0 0 0 0 0 0 0 0 0 0 0 0 0 0.25 0"/>
<feBlend mode="normal" in2="shape" result="effect1_innerShadow_3_492"/>
</filter>
<filter id="filter6_i_3_492" x="540.014" y="571" width="76.3486" height="67.2402" filterUnits="userSpaceOnUse" color-interpolation-filters="sRGB">
<feFlood flood-opacity="0" result="BackgroundImageFix"/>
<feBlend mode="normal" in="SourceGraphic" in2="BackgroundImageFix" result="shape"/>
<feColorMatrix in="SourceAlpha" type="matrix" values="0 0 0 0 0 0 0 0 0 0 0 0 0 0 0 0 0 0 127 0" result="hardAlpha"/>
<feOffset dx="4" dy="4"/>
<feGaussianBlur stdDeviation="3.5"/>
<feComposite in2="hardAlpha" operator="arithmetic" k2="-1" k3="1"/>
<feColorMatrix type="matrix" values="0 0 0 0 0 0 0 0 0 0 0 0 0 0 0 0 0 0 0.25 0"/>
<feBlend mode="normal" in2="shape" result="effect1_innerShadow_3_492"/>
</filter>
<filter id="filter7_i_3_492" x="697.669" y="141.121" width="221.959" height="201.581" filterUnits="userSpaceOnUse" color-interpolation-filters="sRGB">
<feFlood flood-opacity="0" result="BackgroundImageFix"/>
<feBlend mode="normal" in="SourceGraphic" in2="BackgroundImageFix" result="shape"/>
<feColorMatrix in="SourceAlpha" type="matrix" values="0 0 0 0 0 0 0 0 0 0 0 0 0 0 0 0 0 0 127 0" result="hardAlpha"/>
<feOffset dx="4" dy="4"/>
<feGaussianBlur stdDeviation="3.5"/>
<feComposite in2="hardAlpha" operator="arithmetic" k2="-1" k3="1"/>
<feColorMatrix type="matrix" values="0 0 0 0 0.323972 0 0 0 0 0.344702 0 0 0 0 0.373404 0 0 0 0.2 0"/>
<feBlend mode="normal" in2="shape" result="effect1_innerShadow_3_492"/>
</filter>
<filter id="filter8_i_3_492" x="799.875" y="157.877" width="103.986" height="102.248" filterUnits="userSpaceOnUse" color-interpolation-filters="sRGB">
<feFlood flood-opacity="0" result="BackgroundImageFix"/>
<feBlend mode="normal" in="SourceGraphic" in2="BackgroundImageFix" result="shape"/>
<feColorMatrix in="SourceAlpha" type="matrix" values="0 0 0 0 0 0 0 0 0 0 0 0 0 0 0 0 0 0 127 0" result="hardAlpha"/>
<feOffset dx="4" dy="4"/>
<feGaussianBlur stdDeviation="5"/>
<feComposite in2="hardAlpha" operator="arithmetic" k2="-1" k3="1"/>
<feColorMatrix type="matrix" values="0 0 0 0 0 0 0 0 0 0 0 0 0 0 0 0 0 0 0.25 0"/>
<feBlend mode="normal" in2="shape" result="effect1_innerShadow_3_492"/>
</filter>
<filter id="filter9_i_3_492" x="800.09" y="159.008" width="103" height="100" filterUnits="userSpaceOnUse" color-interpolation-filters="sRGB">
<feFlood flood-opacity="0" result="BackgroundImageFix"/>
<feBlend mode="normal" in="SourceGraphic" in2="BackgroundImageFix" result="shape"/>
<feColorMatrix in="SourceAlpha" type="matrix" values="0 0 0 0 0 0 0 0 0 0 0 0 0 0 0 0 0 0 127 0" result="hardAlpha"/>
<feOffset dx="4" dy="4"/>
<feGaussianBlur stdDeviation="2"/>
<feComposite in2="hardAlpha" operator="arithmetic" k2="-1" k3="1"/>
<feColorMatrix type="matrix" values="0 0 0 0 0.609156 0 0 0 0 0.609488 0 0 0 0 0.589617 0 0 0 0.25 0"/>
<feBlend mode="normal" in2="shape" result="effect1_innerShadow_3_492"/>
</filter>
</defs>
</svg>
